<svg width="24" height="25" viewBox="0 0 24 25" fill="none" xmlns="http://www.w3.org/2000/svg">
<path fill-rule="evenodd" clip-rule="evenodd" d="M12 6.02393C12 6.02393 13.5533 6.02393 14.6517 7.12228C14.6517 7.12228 15.75 8.22062 15.75 9.77393C15.75 9.77393 15.75 11.3272 14.6517 12.4256C14.6517 12.4256 13.5533 13.5239 12 13.5239C12 13.5239 10.4467 13.5239 9.34835 12.4256C9.34835 12.4256 8.25 11.3272 8.25 9.77393C8.25 9.77393 8.25 8.22062 9.34835 7.12228C9.34835 7.12228 10.4467 6.02393 12 6.02393ZM12 7.52393C12 7.52393 11.068 7.52393 10.409 8.18294C10.409 8.18294 9.75 8.84195 9.75 9.77393C9.75 9.77393 9.75 10.7059 10.409 11.3649C10.409 11.3649 11.068 12.0239 12 12.0239C12 12.0239 12.932 12.0239 13.591 11.3649C13.591 11.3649 14.25 10.7059 14.25 9.77393C14.25 9.77393 14.25 8.84194 13.591 8.18294C13.591 8.18294 12.932 7.52393 12 7.52393Z" fill="white"/>
<path fill-rule="evenodd" clip-rule="evenodd" d="M19.622 6.61679C19.622 6.61679 20.25 8.1329 20.25 9.77393C20.25 9.77393 20.25 14.2732 16.316 18.7973C16.316 18.7973 15.107 20.1876 13.6576 21.4196C13.6576 21.4196 12.9277 22.04 12.4301 22.3884C12.1719 22.5691 11.8281 22.5691 11.5699 22.3883C11.5699 22.3883 11.0723 22.04 10.3424 21.4196C10.3424 21.4196 8.89304 20.1877 7.68405 18.7973C7.68405 18.7973 3.75 14.2732 3.75 9.77393C3.75 9.77393 3.75 8.1329 4.37799 6.61679C4.37799 6.61679 5.00599 5.10068 6.16637 3.94029C6.16637 3.94029 7.32675 2.77991 8.84286 2.15192C8.84286 2.15192 10.359 1.52393 12 1.52393C12 1.52393 13.641 1.52393 15.1571 2.15192C15.1571 2.15192 16.6732 2.77991 17.8336 3.94029C17.8336 3.94029 18.994 5.10068 19.622 6.61679ZM18.75 9.77393C18.75 9.77393 18.75 8.43127 18.2362 7.19081C18.2362 7.19081 17.7224 5.95036 16.773 5.00095C16.773 5.00095 15.8236 4.05155 14.5831 3.53774C14.5831 3.53774 13.3427 3.02393 12 3.02393C12 3.02393 10.6573 3.02393 9.41689 3.53774C9.41689 3.53774 8.17643 4.05155 7.22703 5.00096C7.22703 5.00096 6.27763 5.95036 5.76381 7.19081C5.76381 7.19081 5.25 8.43127 5.25 9.77393C5.25 9.77393 5.25 13.7122 8.81595 17.813C8.81595 17.813 9.95071 19.118 11.3139 20.2767C11.3139 20.2767 11.6943 20.6001 12 20.839C12 20.839 12.3057 20.6001 12.6861 20.2767C12.6861 20.2767 14.0493 19.118 15.184 17.813C15.184 17.813 18.75 13.7122 18.75 9.77393Z" fill="white"/>
</svg>
