<svg width="24" height="25" viewBox="0 0 24 25" fill="none" xmlns="http://www.w3.org/2000/svg">
<path fill-rule="evenodd" clip-rule="evenodd" d="M2.25 18.0239V5.27393C2.25 4.85971 2.58579 4.52393 3 4.52393H21C21.4142 4.52393 21.75 4.85971 21.75 5.27393V18.0239C21.75 18.0239 21.75 18.6452 21.3107 19.0846C21.3107 19.0846 20.8713 19.5239 20.25 19.5239H3.75C3.75 19.5239 3.12868 19.5239 2.68934 19.0846C2.68934 19.0846 2.25 18.6452 2.25 18.0239ZM3.75 18.0239H20.25V6.02393H3.75V18.0239Z" fill="white"/>
<path d="M3.50679 4.72106C3.36847 4.59426 3.18764 4.52393 3 4.52393C2.98914 4.52393 2.97828 4.52416 2.96742 4.52463C2.7687 4.53327 2.58154 4.6205 2.44713 4.76713C2.32034 4.90545 2.25 5.08628 2.25 5.27393C2.25 5.28479 2.25024 5.29565 2.25071 5.3065C2.25935 5.50523 2.34658 5.69238 2.49321 5.82679L11.4932 14.0768C11.7799 14.3396 12.2201 14.3396 12.5068 14.0768L21.5063 5.82725C21.6613 5.68519 21.75 5.48416 21.75 5.27393L21.75 5.26769C21.7484 5.0822 21.6782 4.90387 21.5529 4.76713C21.4185 4.6205 21.2313 4.53327 21.0326 4.52463C21.0217 4.52416 21.0109 4.52393 21 4.52393L20.9965 4.52393C20.8101 4.52479 20.6306 4.59507 20.4932 4.72106L12 12.5065L3.50679 4.72106Z" fill="white"/>
</svg>
