<svg width="49" height="49" viewBox="0 0 49 49" fill="none" xmlns="http://www.w3.org/2000/svg">
<g clip-path="url(#clip0_1207_3814)">
<path d="M48.1602 24.2856C48.1602 11.0294 37.4164 0.285645 24.1602 0.285645C10.904 0.285645 0.160156 11.0294 0.160156 24.2856C0.160156 36.2669 8.93516 46.195 20.4102 47.995V31.2231H14.3164V24.2856H20.4102V18.9981C20.4102 12.984 23.9915 9.66064 29.4758 9.66064C32.1008 9.66064 34.8477 10.1294 34.8477 10.1294V16.0356H31.8196C28.8383 16.0356 27.9102 17.8872 27.9102 19.7856V24.2856H34.5664L33.5024 31.2231H27.9102V47.995C39.3852 46.195 48.1602 36.2669 48.1602 24.2856Z" fill="#1877F2"/>
<path d="M33.5024 31.2231L34.5664 24.2856H27.9102V19.7856C27.9102 17.8872 28.8383 16.0356 31.8196 16.0356H34.8477V10.1294C34.8477 10.1294 32.1008 9.66064 29.4758 9.66064C23.9915 9.66064 20.4102 12.984 20.4102 18.9981V24.2856H14.3164V31.2231H20.4102V47.995C21.6336 48.1872 22.8852 48.2856 24.1602 48.2856C25.4352 48.2856 26.6868 48.1872 27.9102 47.995V31.2231H33.5024Z" fill="white"/>
</g>
<defs>
<clipPath id="clip0_1207_3814">
<rect width="48" height="48" fill="white" transform="translate(0.160156 0.285645)"/>
</clipPath>
</defs>
</svg>