<svg width="65" height="64" viewBox="0 0 65 64" fill="none" xmlns="http://www.w3.org/2000/svg">
    <rect x="0.333008" width="64" height="64" rx="12" fill="white"/>
    <path opacity="0.4" d="M25.041 36.795V27.2166C26.546 26.8316 27.666 25.4666 27.666 23.845C27.666 21.9083 26.1027 20.345 24.166 20.345C22.2293 20.345 20.666 21.9083 20.666 23.845C20.666 25.4783 21.786 26.8316 23.291 27.2166V36.795C21.786 37.18 20.666 38.545 20.666 40.1666C20.666 42.1033 22.2293 43.6666 24.166 43.6666C26.1027 43.6666 27.666 42.1033 27.666 40.1666C27.666 38.5333 26.546 37.18 25.041 36.795Z" fill="url(#paint0_linear_1729_21326)"/>
    <path d="M41.3747 36.795V25.5833C41.3747 23.81 39.9397 22.375 38.1663 22.375H34.748L36.393 21.01C36.7663 20.695 36.813 20.1466 36.5097 19.7733C36.1947 19.4 35.6464 19.3533 35.273 19.6566L31.773 22.5733C31.5747 22.7366 31.458 22.9816 31.458 23.25C31.458 23.5183 31.5747 23.7516 31.773 23.9266L35.273 26.8433C35.4364 26.9833 35.6347 27.0416 35.833 27.0416C36.078 27.0416 36.3347 26.9366 36.5097 26.7266C36.8247 26.3533 36.7663 25.805 36.393 25.49L34.748 24.125H38.1663C38.9713 24.125 39.6247 24.7783 39.6247 25.5833V36.795C38.1197 37.18 36.9997 38.545 36.9997 40.1666C36.9997 42.1033 38.563 43.6666 40.4997 43.6666C42.4363 43.6666 43.9997 42.1033 43.9997 40.1666C43.9997 38.5333 42.8797 37.18 41.3747 36.795Z" fill="url(#paint1_linear_1729_21326)"/>
    <defs>
        <linearGradient id="paint0_linear_1729_21326" x1="21.3576" y1="56.3564" x2="27.1134" y2="56.139" gradientUnits="userSpaceOnUse">
            <stop stop-color="#00C1AA"/>
            <stop offset="1" stop-color="#0061B4"/>
        </linearGradient>
        <linearGradient id="paint1_linear_1729_21326" x1="32.6972" y1="56.8392" x2="42.9806" y2="56.1688" gradientUnits="userSpaceOnUse">
            <stop stop-color="#00C1AA"/>
            <stop offset="1" stop-color="#0061B4"/>
        </linearGradient>
    </defs>
</svg>
