<svg width="24" height="25" viewBox="0 0 24 25" fill="none" xmlns="http://www.w3.org/2000/svg">
<path d="M15.1388 3.04961C17.2741 3.62286 18.8375 5.18626 18.8375 5.18626C20.401 6.74975 20.9742 8.88524 20.9742 8.88524C20.9908 8.94678 20.9995 9.0106 21 9.07433L21 9.08005C21 9.4194 20.7721 9.71646 20.4444 9.80442C20.3855 9.82024 20.3248 9.8288 20.2638 9.82993L20.25 9.83005C20.1184 9.83005 19.9892 9.79545 19.8753 9.72972C19.7029 9.63034 19.5772 9.46657 19.5256 9.27446L19.5253 9.2733C19.0561 7.52617 17.7769 6.24692 17.7769 6.24692C16.4972 4.96726 14.7493 4.49817 14.7493 4.49817C14.4216 4.41021 14.1937 4.11315 14.1937 3.7738C14.1937 3.71008 14.2019 3.64661 14.2179 3.58493L14.2194 3.5794C14.2672 3.40126 14.379 3.24699 14.5333 3.14606C14.545 3.13842 14.5569 3.13111 14.569 3.12413C14.683 3.0584 14.8122 3.0238 14.9437 3.0238C15.0075 3.0238 15.0709 3.03193 15.1326 3.04798L15.1388 3.04961Z" fill="white"/>
<path d="M16.6282 10.0504C16.7155 10.379 17.0131 10.6082 17.3531 10.6082L17.3569 10.6082C17.4206 10.6079 17.4841 10.5994 17.5456 10.5831C17.8743 10.4958 18.1031 10.1983 18.1031 9.85822L18.1031 9.85445C18.1028 9.79072 18.0944 9.7273 18.078 9.6657C17.7159 8.30291 16.7186 7.3052 16.7186 7.3052C15.7213 6.30788 14.3581 5.94584 14.3581 5.94584C14.2953 5.92916 14.2306 5.92072 14.1656 5.92072L14.1513 5.92085C13.8166 5.92727 13.5267 6.15468 13.4408 6.4782C13.4241 6.54101 13.4156 6.60573 13.4156 6.67072C13.4156 6.67915 13.4158 6.68758 13.4161 6.69601C13.4202 6.81958 13.4549 6.94021 13.5169 7.04715C13.6168 7.21919 13.7809 7.34453 13.9731 7.39559C14.9457 7.65406 15.658 8.36586 15.658 8.36586C16.3697 9.0776 16.6282 10.0504 16.6282 10.0504Z" fill="white"/>
<path fill-rule="evenodd" clip-rule="evenodd" d="M10.9111 9.02328L9.3484 11.4C9.3484 11.4 10.4263 13.6234 12.6491 14.6928L12.6521 14.6907L14.9915 13.1281C14.9915 13.1281 15.3092 12.9126 15.6915 12.8774C15.6915 12.8774 16.0738 12.8421 16.421 12.994L20.8007 14.8751C20.8007 14.8751 21.266 15.0687 21.5183 15.505C21.5183 15.505 21.7706 15.9413 21.7064 16.4409C21.7064 16.4409 21.4547 18.4057 19.9678 19.7145C19.9678 19.7145 18.481 21.0233 16.5 21.0238C16.5 21.0238 13.8147 21.0238 11.3338 19.9961C11.3338 19.9961 8.85286 18.9685 6.95406 17.0697C6.95406 17.0697 5.05525 15.1709 4.02763 12.69C4.02763 12.69 3 10.2091 3 7.52358C3 7.52358 3.00045 5.54276 4.30925 4.05591C4.30925 4.05591 5.61805 2.56906 7.58257 2.31736C7.58257 2.31736 8.08245 2.25315 8.51873 2.50546C8.51873 2.50546 8.95501 2.75777 9.14561 3.21581L11.0285 7.60935C11.0285 7.60935 11.1778 7.95302 11.1479 8.32652C11.1479 8.32652 11.1181 8.70002 10.9111 9.02328ZM7.99536 12.0475L7.99416 12.045C7.99416 12.045 7.82652 11.6932 7.85147 11.304C7.85147 11.304 7.8765 10.9135 8.08911 10.585L9.65268 8.20684L7.76689 3.80669C7.76689 3.80669 6.36768 3.98765 5.43518 5.04701C5.43518 5.04701 4.50032 6.10905 4.5 7.52392C4.5 7.52392 4.5 9.9107 5.41345 12.116C5.41345 12.116 6.32689 14.3212 8.01472 16.009C8.01472 16.009 9.70255 17.6969 11.9078 18.6103C11.9078 18.6103 14.1131 19.5238 16.5 19.5238C16.5 19.5238 17.9147 19.5234 18.9767 18.5886C18.9767 18.5886 20.0362 17.656 20.2177 16.2571L15.8292 14.3723L13.4853 15.938C13.4853 15.938 13.159 16.1584 12.7627 16.1885C12.7627 16.1885 12.3664 16.2186 12.0072 16.0485C12.0072 16.0485 9.30279 14.7475 7.99685 12.0506L7.99629 12.0495L7.99595 12.0488L7.99536 12.0475Z" fill="white"/>
</svg>
