<svg width="65" height="64" viewBox="0 0 65 64" fill="none" xmlns="http://www.w3.org/2000/svg">
    <rect x="0.666992" width="64" height="64" rx="12" fill="url(#paint0_linear_1729_21407)" fill-opacity="0.9"/>
    <path opacity="0.4" d="M29.5493 17.8569C31.4785 16.7144 33.8554 16.7144 35.7847 17.8569L43.0493 22.159C44.9785 23.3015 46.167 25.4129 46.167 27.6979V36.3021C46.167 38.5871 44.9785 40.6985 43.0493 41.841L35.7847 46.1431C33.8554 47.2856 31.4785 47.2856 29.5493 46.1431L22.2847 41.841C20.3554 40.6985 19.167 38.5871 19.167 36.3021V27.6979C19.167 25.4129 20.3554 23.3015 22.2847 22.159L29.5493 17.8569Z" fill="white"/>
    <path d="M29.5497 46.1429C31.4789 47.2854 33.8558 47.2854 35.7851 46.1429L42.1189 42.392C40.2321 39.047 36.7059 36.7966 32.6674 36.7966C28.6288 36.7966 25.1027 39.047 23.2158 42.392L29.5497 46.1429Z" fill="white"/>
    <circle cx="4.5" cy="4.5" r="4.5" transform="matrix(1 0 0 -1 28.167 33.5)" fill="white"/>
    <defs>
        <linearGradient id="paint0_linear_1729_21407" x1="74.5991" y1="16" x2="18.0693" y2="77.4726" gradientUnits="userSpaceOnUse">
            <stop stop-color="#003CC4"/>
            <stop offset="1" stop-color="#0E8F9E"/>
        </linearGradient>
    </defs>
</svg>
