<svg width="64" height="64" viewBox="0 0 64 64" fill="none" xmlns="http://www.w3.org/2000/svg">
    <rect width="64" height="64" rx="12" fill="url(#paint0_linear_1727_21482)" fill-opacity="0.9"/>
    <path opacity="0.6" d="M20 26H17V39.5L23.4663 42.7331C25.1325 43.5663 26.9699 44 28.8328 44H41C42.6569 44 44 42.6569 44 41C44 39.3431 42.6569 38 41 38H38.6246C37.2274 38 35.8494 37.6747 34.5997 37.0498L30.188 34.844C30.4764 34.5784 30.7148 34.2489 30.8792 33.8651C31.4996 32.4177 30.8361 30.7408 29.3934 30.1096L20 26Z" fill="white"/>
    <path d="M32.8765 26.7207L37.9383 33.0478C38.7389 34.0486 40.2611 34.0486 41.0617 33.0478L46.1235 26.7207C46.6909 26.0114 47 25.1302 47 24.2219V23.9775C47 21.7808 45.2192 20 43.0225 20H42.5764C41.8072 20 41.0694 20.3056 40.5255 20.8495C39.9591 21.4159 39.0409 21.4159 38.4745 20.8495C37.9306 20.3056 37.1928 20 36.4236 20H35.9775C33.7808 20 32 21.7808 32 23.9775V24.2219C32 25.1302 32.3091 26.0114 32.8765 26.7207Z" fill="white"/>
    <defs>
        <linearGradient id="paint0_linear_1727_21482" x1="73.9321" y1="16" x2="17.4023" y2="77.4726" gradientUnits="userSpaceOnUse">
            <stop stop-color="#003CC4"/>
            <stop offset="1" stop-color="#0E8F9E"/>
        </linearGradient>
    </defs>
</svg>
