<svg width="49" height="49" viewBox="0 0 49 49" fill="none" xmlns="http://www.w3.org/2000/svg">
<g clip-path="url(#clip0_1240_3809)">
<path d="M0.160156 24.2856C0.160156 11.0308 10.9053 0.285645 24.1602 0.285645C37.415 0.285645 48.1602 11.0308 48.1602 24.2856C48.1602 37.5405 37.415 48.2856 24.1602 48.2856C10.9053 48.2856 0.160156 37.5405 0.160156 24.2856Z" fill="#FF0000"/>
<path d="M36.4251 18.3591C36.1307 17.2281 35.2632 16.3374 34.1617 16.0352C32.1655 15.4858 24.1601 15.4858 24.1601 15.4858C24.1601 15.4858 16.1547 15.4858 14.1584 16.0352C13.0568 16.3374 12.1893 17.2281 11.8949 18.3591C11.3601 20.4089 11.3601 24.6858 11.3601 24.6858C11.3601 24.6858 11.3601 28.9627 11.8949 31.0126C12.1893 32.1436 13.0568 33.0342 14.1584 33.3367C16.1547 33.8858 24.1601 33.8858 24.1601 33.8858C24.1601 33.8858 32.1655 33.8858 34.1617 33.3367C35.2632 33.0342 36.1307 32.1436 36.4251 31.0126C36.9601 28.9627 36.9601 24.6858 36.9601 24.6858C36.9601 24.6858 36.9601 20.4089 36.4251 18.3591Z" fill="white"/>
<path d="M21.7603 29.0854V21.0854L28.1603 25.0856L21.7603 29.0854Z" fill="#FF0000"/>
</g>
<defs>
<clipPath id="clip0_1240_3809">
<rect width="48" height="48" fill="white" transform="translate(0.160156 0.285645)"/>
</clipPath>
</defs>
</svg>
